<?xml version="1.0" standalone="no"?>
<!DOCTYPE svg PUBLIC "-//W3C//DTD SVG 20010904//EN"
 "http://www.w3.org/TR/2001/REC-SVG-20010904/DTD/svg10.dtd">
<svg version="1.0" xmlns="http://www.w3.org/2000/svg"
 width="512.000000pt" height="512.000000pt" viewBox="0 0 512.000000 512.000000"
 preserveAspectRatio="xMidYMid meet">
<metadata>
Created by potrace 1.16, written by Peter Selinger 2001-2019
</metadata>
<g transform="translate(0.000000,512.000000) scale(0.100000,-0.100000)"
fill="#000000" stroke="none">
<path d="M2499 4691 c-14 -5 -36 -14 -50 -21 -13 -7 -256 -243 -539 -526
l-515 -513 -325 -3 -325 -3 -68 -32 c-128 -61 -222 -180 -247 -312 -13 -72
-13 -1370 0 -1442 25 -132 119 -251 247 -312 l68 -32 325 -3 325 -3 515 -513
c283 -283 529 -521 545 -529 108 -53 238 -16 295 85 l25 43 0 1985 0 1985 -24
42 c-50 87 -159 132 -252 104z"/>
<path d="M3213 3505 c-84 -42 -131 -138 -113 -232 9 -52 25 -79 82 -142 65
-71 102 -127 143 -214 58 -121 78 -214 78 -357 0 -143 -20 -236 -78 -357 -41
-87 -78 -143 -143 -214 -78 -86 -97 -139 -81 -226 25 -134 178 -212 304 -154
79 36 219 210 304 380 90 179 131 356 131 571 0 215 -41 392 -131 571 -85 170
-225 344 -304 380 -58 27 -130 24 -192 -6z"/>
</g>
</svg>
