<?xml version="1.0" standalone="no"?>
<!DOCTYPE svg PUBLIC "-//W3C//DTD SVG 20010904//EN"
 "http://www.w3.org/TR/2001/REC-SVG-20010904/DTD/svg10.dtd">
<svg version="1.0" xmlns="http://www.w3.org/2000/svg"
 width="512.000000pt" height="512.000000pt" viewBox="0 0 512.000000 512.000000"
 preserveAspectRatio="xMidYMid meet">
<metadata>
Created by potrace 1.16, written by Peter Selinger 2001-2019
</metadata>
<g transform="translate(0.000000,512.000000) scale(0.100000,-0.100000)"
fill="#000000" stroke="none">
<path d="M2499 4691 c-14 -5 -36 -14 -50 -21 -13 -7 -256 -243 -539 -526
l-515 -513 -325 -3 -325 -3 -68 -32 c-128 -61 -222 -180 -247 -312 -13 -72
-13 -1370 0 -1442 25 -132 119 -251 247 -312 l68 -32 325 -3 325 -3 515 -513
c283 -283 529 -521 545 -529 108 -53 238 -16 295 85 l25 43 0 1985 0 1985 -24
42 c-50 87 -159 132 -252 104z"/>
<path d="M3247 3265 c-96 -37 -147 -106 -155 -214 -7 -109 11 -139 203 -331
l165 -165 -169 -170 c-192 -194 -207 -219 -199 -328 6 -73 24 -113 74 -161 70
-68 199 -85 290 -38 21 11 110 93 198 182 l158 162 167 -165 c91 -90 181 -172
200 -182 19 -9 60 -20 93 -22 179 -17 310 154 253 328 -16 48 -38 74 -184 221
-91 92 -166 171 -165 174 1 4 75 82 166 173 146 146 167 172 183 220 58 176
-77 347 -259 328 -30 -3 -69 -13 -87 -22 -19 -9 -109 -91 -200 -182 l-166
-164 -154 156 c-85 86 -173 168 -197 182 -54 32 -157 41 -215 18z"/>
</g>
</svg>
